<svg width="20" height="25" viewBox="0 0 20 25" fill="none" xmlns="http://www.w3.org/2000/svg">
<g clip-path="url(#clip0_1_2)">
<path d="M19.3335 0.493923L16.1966 0.00519995C16.1038 -0.014349 16.011 0.0247465 15.9739 0.0638445L14.6375 1.90145C14.5446 2.01874 14.5261 2.17513 14.5632 2.31197C14.6003 2.44881 14.489 2.56611 14.359 2.54656L13.2639 2.29242C13.0969 2.25332 12.9112 2.31197 12.7999 2.46836L8.4565 8.33305C8.38227 8.45035 8.23377 8.48945 8.10382 8.4308L6.45186 7.64885C6.30336 7.57065 6.13632 7.5902 6.00641 7.68795L5.17114 8.29395C5.04123 8.3917 4.85559 8.41125 4.70709 8.33305L4.29875 8.118C4.03889 7.98115 3.72335 8.13755 3.6491 8.4308L3.35212 9.81875C3.27787 10.1511 3.4078 10.4835 3.68622 10.6594L4.31731 11.0699L6.3405 12.3797L7.32427 13.0248C7.60268 13.2008 7.95536 13.1616 8.19664 12.9466L9.84859 11.4218C9.97855 11.3045 10.1827 11.2654 10.3312 11.3631L10.8324 11.6368C10.9994 11.7345 11.2036 11.6955 11.3335 11.5586L12.1688 10.7375C12.2987 10.6007 12.5029 10.5812 12.6514 10.6594L13.895 11.2654C14.0806 11.3631 14.3034 11.3045 14.4333 11.1285L15.0087 10.3466L19.3706 4.46236C19.5748 4.18867 19.4449 3.77814 19.1107 3.69995L18.1455 3.46536C17.9414 3.42626 17.8486 3.15258 17.997 2.99619L19.5005 1.02174C19.649 0.787155 19.5562 0.53302 19.3335 0.493923Z" fill="#111112"/>
<path d="M4.74955 12.3056C4.64977 12.2478 4.54995 12.3442 4.58986 12.4406L5.08891 13.7129C5.12882 13.8092 5.12882 13.9056 5.10886 14.002L4.66973 15.6598C4.64977 15.7755 4.68968 15.8912 4.7695 15.949L6.02709 16.8936C6.14686 16.9707 6.30655 16.9707 6.40636 16.8743L7.72382 15.7562C7.80364 15.6984 7.90345 15.6598 7.98332 15.6406L9.48041 15.4863C9.58023 15.4671 9.62014 15.3321 9.52032 15.2743L4.74955 12.3056Z" fill="#171717"/>
<path d="M4.45079 16.583C4.3752 16.5262 4.26183 16.5073 4.16735 16.5451L3.16588 17.0367C3.1092 17.0556 3.0714 17.1122 3.03361 17.1689L0.8984 22.4434C0.8984 22.4623 0.8984 22.4623 0.8984 22.4812C0.917295 22.5001 0.936191 22.5189 0.973982 22.5189L1.46527 22.3299C1.48417 22.3299 1.50306 22.3299 1.52195 22.3299C1.54085 22.3488 1.55975 22.3866 1.54085 22.4056L0.0102996 24.9198C-0.0274918 24.9765 0.0480927 25.0332 0.0858841 24.9765L5.62232 19.4186C5.679 19.3619 5.69791 19.3052 5.71682 19.2295L5.83018 17.7928C5.83018 17.6983 5.79236 17.6227 5.73568 17.566L4.45079 16.583Z" fill="#111112"/>
</g>
<defs>
<clipPath id="clip0_1_2">
<rect width="20" height="25" fill="white"/>
</clipPath>
</defs>
</svg>
